<svg width="24" height="24" viewBox="0 0 24 24" fill="none" xmlns="http://www.w3.org/2000/svg">
<g clip-path="url(#clip0_230_3003)">
<rect width="24" height="24" rx="7" fill="white"/>
<g clip-path="url(#clip1_230_3003)">
<rect width="24" height="24" rx="7" fill="#A1ED9D"/>
<path d="M18.7 7.20039C18.3 6.80039 17.7 6.80039 17.3 7.20039L9.8 14.7004L6.7 11.6004C6.3 11.2004 5.7 11.2004 5.3 11.6004C4.9 12.0004 4.9 12.6004 5.3 13.0004L9.1 16.8004C9.3 17.0004 9.5 17.1004 9.8 17.1004C10.1 17.1004 10.3 17.0004 10.5 16.8004L18.7 8.60039C19.1 8.20039 19.1 7.60039 18.7 7.20039Z" fill="white"/>
</g>
</g>
<defs>
<clipPath id="clip0_230_3003">
<rect width="24" height="24" rx="7" fill="white"/>
</clipPath>
<clipPath id="clip1_230_3003">
<rect width="24" height="24" rx="7" fill="white"/>
</clipPath>
</defs>
</svg>
